Coordinates
version=1
nRows=13
nColumns=38
inDegrees=no

Units are S.I. units (second, meters, Newtons, ...)
If the header above contains a line with 'inDegrees', this indicates whether rotational values are in degrees (yes) or radians (no).

endheader
time	pelvis_tilt	pelvis_list	pelvis_rotation	pelvis_tx	pelvis_ty	pelvis_tz	hip_flexion_r	hip_adduction_r	hip_rotation_r	knee_angle_r	ankle_angle_r	subtalar_angle_r	mtp_angle_r	hip_flexion_l	hip_adduction_l	hip_rotation_l	knee_angle_l	ankle_angle_l	subtalar_angle_l	mtp_angle_l	lumbar_extension	lumbar_bending	lumbar_rotation	arm_flex_r	arm_add_r	arm_rot_r	elbow_flex_r	pro_sup_r	wrist_flex_r	wrist_dev_r	arm_flex_l	arm_add_l	arm_rot_l	elbow_flex_l	pro_sup_l	wrist_flex_l	wrist_dev_l
20	-0.203924	1.40025	-1.30808	0.790113	-0.165127	0.952152	-0.0624973	-0.0245397	-0.315261	0.478299	-0.257764	0	0	-0.228593	-0.062952	0.0236789	0.0866652	-0.395276	0	0	-0.664784	0.185952	-0.145873	0.919943	-0.0796239	0.183479	0.442369	1.5708	0	0	0.603617	-0.411768	0.204863	0.770212	1.5708	0	0
20.01	-0.255607	1.42231	-1.2649	0.789972	-0.166027	0.951063	-0.0776355	-0.0216772	-0.130063	0.364329	-0.29993	0	0	-0.204869	-0.0621235	0.0249272	0.0874051	-0.39455	0	0	-0.632431	0.208134	-0.138107	0.924111	-0.067173	0.174138	0.427679	1.5708	0	0	0.62579	-0.281652	-0.084811	0.63653	1.5708	0	0
20.02	-0.215695	1.40764	-1.29844	0.790196	-0.16754	0.951609	-0.0569989	-0.0246896	-0.313149	0.478956	-0.245617	0	0	-0.22768	-0.0621953	0.0261144	0.0777946	-0.398964	0	0	-0.656683	0.185348	-0.144534	0.908627	-0.0787883	0.165971	0.452937	1.5708	0	0	0.593912	-0.406646	0.196296	0.773652	1.5708	0	0
20.03	-0.251783	1.41559	-1.26325	0.790367	-0.16919	0.951503	-0.0606042	-0.0111579	-0.287111	0.442367	-0.253296	0	0	-0.221488	-0.0654395	0.0278295	0.0737631	-0.400736	0	0	-0.636017	0.211362	-0.140902	0.913049	-0.067555	0.1543	0.439137	1.5708	0	0	0.619084	-0.282809	-0.0721683	0.639153	1.5708	0	0
20.04	-0.222503	1.4144	-1.29252	0.79024	-0.17012	0.951061	-0.0534795	-0.0251994	-0.313146	0.477985	-0.237682	0	0	-0.227209	-0.0612467	0.0292025	0.0699715	-0.400743	0	0	-0.649383	0.184559	-0.14609	0.897744	-0.077964	0.150484	0.466395	1.5708	0	0	0.583019	-0.41409	0.211583	0.784394	1.5708	0	0
20.05	-0.226227	1.41826	-1.28958	0.790255	-0.17148	0.950711	-0.0497276	-0.0272941	-0.316542	0.481432	-0.242897	0	0	-0.226184	-0.0606294	0.02955	0.0671766	-0.400056	0	0	-0.645024	0.184072	-0.147625	0.89294	-0.0773074	0.147965	0.471261	1.5708	0	0	0.574815	-0.415205	0.207344	0.79063	1.5708	0	0
20.06	-0.282026	1.4384	-1.24206	0.790005	-0.17236	0.949689	-0.0693007	-0.0236404	-0.124553	0.360893	-0.291875	0	0	-0.203604	-0.0600906	0.0293495	0.0702301	-0.396657	0	0	-0.62158	0.191744	-0.141269	0.889018	-0.073897	0.141833	0.474	1.5708	0	0	0.576773	-0.367342	0.115392	0.737819	1.5708	0	0
20.07	-0.244612	1.42589	-1.27229	0.790311	-0.174186	0.950264	-0.0486651	-0.022313	-0.304725	0.468805	-0.2346	0	0	-0.223731	-0.0611112	0.0322534	0.0615071	-0.40046	0	0	-0.637278	0.185012	-0.150248	0.880533	-0.0764575	0.140158	0.487186	1.5708	0	0	0.557432	-0.418198	0.199505	0.804628	1.5708	0	0
20.08	-0.24947	1.42946	-1.26788	0.790301	-0.175594	0.949988	-0.0469029	-0.0226482	-0.304358	0.467826	-0.234249	0	0	-0.22294	-0.0607199	0.0331617	0.0588073	-0.400955	0	0	-0.63327	0.184515	-0.151886	0.873377	-0.0763196	0.139409	0.492714	1.5708	0	0	0.549127	-0.419273	0.196183	0.810131	1.5708	0	0
20.09	-0.256835	1.43275	-1.26102	0.790309	-0.176985	0.94976	-0.0465076	-0.0213546	-0.300595	0.463361	-0.234333	0	0	-0.222461	-0.0606995	0.0338788	0.0556739	-0.401692	0	0	-0.629809	0.18435	-0.15298	0.865992	-0.0762514	0.135054	0.499861	1.5708	0	0	0.540859	-0.420308	0.193288	0.815944	1.5708	0	0
20.1	-0.261386	1.43595	-1.25706	0.790325	-0.178396	0.949463	-0.0440101	-0.0227197	-0.302286	0.465466	-0.235685	0	0	-0.222476	-0.0602147	0.0341959	0.0519608	-0.402457	0	0	-0.62629	0.183613	-0.154123	0.858382	-0.0764926	0.130991	0.507504	1.5708	0	0	0.532738	-0.421586	0.191427	0.821645	1.5708	0	0
20.11	-0.282265	1.43764	-1.23657	0.790355	-0.179729	0.949518	-0.0515189	-0.0131714	-0.282797	0.440973	-0.24434	0	0	-0.223172	-0.0625598	0.0350684	0.0483925	-0.404021	0	0	-0.624531	0.18552	-0.154328	0.850705	-0.0768321	0.127387	0.516105	1.5708	0	0	0.524334	-0.422932	0.189463	0.827671	1.5708	0	0
20.12	-0.34565	1.42834	-1.17145	0.790358	-0.180943	0.951131	-0.124514	0.0350058	-0.171376	0.269284	-0.310687	0	0	-0.233508	-0.0764114	0.0355949	0.0421786	-0.408695	0	0	-0.634037	0.197508	-0.150007	0.841876	-0.0781661	0.119824	0.530282	1.5708	0	0	0.517681	-0.423125	0.187216	0.834	1.5708	0	0
